<?xml version="1.0" encoding="UTF-8"?>
<!DOCTYPE svg PUBLIC "-//W3C//DTD SVG 1.1//EN" "http://www.w3.org/Graphics/SVG/1.1/DTD/svg11.dtd">
<!-- Creator: CorelDRAW 2018 (64-Bit) -->
<svg xmlns="http://www.w3.org/2000/svg" xml:space="preserve" version="1.1" style="shape-rendering:geometricPrecision; text-rendering:geometricPrecision; image-rendering:optimizeQuality; fill-rule:evenodd; clip-rule:evenodd"
viewBox="0 0 1997.62 607.73"
 xmlns:xlink="http://www.w3.org/1999/xlink">
 <g id="Layer_x0020_1">
  <metadata id="CorelCorpID_0Corel-Layer"/>
  <path class="fil0" d="M259.52 0.01l-5.26 0 -155.76 0 -39.2 0 -14.58 0c-28.8,0 -49.51,25.46 -43.74,53.2l69.91 336.36c3.77,18.17 19.87,31.31 38.77,31.31l4.68 0 4.68 0 238.82 0 91.13 165.49c7.26,13.18 19.51,21.37 35.27,21.37l9.35 0c22.4,0 44.14,-17.87 44.03,-41.31l-0.1 -145.54 11.23 0 14.58 0c28.8,0 48.84,-28.71 43.74,-53.2l-2.26 -138.03 97.09 0 -0.52 122.56 73.58 0 1.32 -304.95 -73.58 0 -0.53 122.43 -98.33 0 -2.23 -136.21c-3.77,-18.17 -19.88,-31.31 -38.77,-31.31l-4.68 0 -4.68 0c-98.36,-0.92 -194.84,-2.2 -293.97,-2.16zm1564.88 189.74l0 0 0.36 -83.02 36.34 0c11.04,0 20.25,1.54 27.79,4.68 7.54,3.08 13.25,7.76 17.06,13.98 3.89,6.22 5.74,14.05 5.7,23.48 -0.04,9.36 -1.97,17.12 -5.91,23.13 -3.87,6.01 -9.55,10.48 -17.1,13.41 -7.5,2.93 -16.8,4.34 -27.9,4.34l-36.34 0zm-532.41 67.78l0 0 50.03 0c23.34,0 43.49,-4.33 60.5,-13 17.02,-8.59 30.14,-20.75 39.36,-36.54 9.29,-15.72 13.91,-34.09 14.01,-55.14 0.09,-20.96 -4.31,-39.33 -13.25,-55.12 -9.01,-15.86 -21.75,-28.24 -38.35,-37.11 -16.59,-8.88 -36.28,-13.35 -59.12,-13.35l-125.99 0 -1.32 304.95 73.73 0 0.41 -94.68zm-395.86 -210.27l-1.32 304.95 -73.73 0 1.32 -304.95 73.73 0zm210.56 91.48c-0.93,-10.97 -5.29,-19.43 -13.09,-25.57 -7.73,-6.08 -18.83,-9.16 -33.22,-9.16 -9.51,0 -17.47,1.26 -23.84,3.7 -6.38,2.51 -11.14,5.94 -14.3,10.2 -3.23,4.34 -4.86,9.29 -5.02,14.82 -0.16,4.61 0.73,8.59 2.74,12.09 2.02,3.49 5,6.49 8.91,9.15 3.9,2.66 8.64,4.96 14.15,6.92 5.59,1.96 11.79,3.7 18.77,5.24l26.18 5.94c15.01,3.29 28.34,7.62 39.92,13.07 11.5,5.44 21.19,12.02 29.05,19.56 7.86,7.48 13.84,16.21 17.85,25.99 4.01,9.85 6.06,20.9 6.14,33.06 -0.23,19.29 -5.19,35.78 -14.82,49.61 -9.7,13.77 -23.58,24.38 -41.64,31.73 -18,7.34 -39.74,10.97 -65.17,10.97 -25.51,0 -47.71,-3.77 -66.62,-11.46 -18.97,-7.61 -33.66,-19.22 -44.08,-34.79 -10.48,-15.59 -15.78,-35.29 -15.96,-59.12l70.58 0c0.51,9.78 3.14,18.03 7.72,24.53 4.66,6.57 11.05,11.54 19.22,14.89 8.23,3.42 17.73,5.1 28.5,5.1 9.92,0 18.39,-1.32 25.45,-4.05 7,-2.66 12.4,-6.36 16.19,-11.12 3.79,-4.82 5.77,-10.26 5.88,-16.42 -0.05,-5.73 -1.85,-10.69 -5.32,-14.82 -3.48,-4.12 -8.77,-7.68 -15.96,-10.68 -7.19,-3.08 -16.32,-5.88 -27.43,-8.46l-31.83 -7.4c-26.39,-6.08 -47.11,-15.86 -62.27,-29.43 -15.11,-13.56 -22.58,-31.86 -22.4,-54.99 0.01,-18.87 5.18,-35.43 15.44,-49.61 10.26,-14.19 24.44,-25.22 42.56,-33.19 18.13,-7.9 38.7,-11.88 61.82,-11.88 23.62,0 44.15,3.99 61.51,11.95 17.43,8.04 30.87,19.23 40.45,33.61 9.59,14.4 14.41,31.03 14.53,50.04l-70.58 0zm185.54 60.72l36.34 0c11.1,0 20.42,-1.96 27.9,-5.8 7.57,-3.91 13.25,-9.29 17.12,-16.28 3.95,-7.05 5.87,-15.16 5.91,-24.53 0.04,-9.43 -1.8,-17.61 -5.69,-24.46 -3.81,-6.91 -9.53,-12.29 -17.05,-16.07 -7.53,-3.7 -16.74,-5.59 -27.79,-5.59l-36.34 0 -0.4 92.73zm198.99 152.75l1.31 -304.95 212.65 0 -0.26 59.89 -138.92 0 -0.28 62.54 128.02 0 -0.26 59.95 -128.02 0 -0.27 62.68 138.91 0 -0.26 59.88 -212.64 0zm332.93 -104.4l-0.46 104.4 -73.72 0 1.32 -304.95 125.99 0c22.85,0 42.53,4.12 59.13,12.3 16.59,8.17 29.33,19.91 38.35,35.14 8.94,15.24 13.34,33.26 13.25,54.16 -0.09,21.1 -4.78,39.06 -14.07,53.8 -9.23,14.65 -22.24,25.79 -39.1,33.47l62.77 116.07 -80.43 0 -55.31 -104.4 -37.73 0 110.7 -11.68 -110.7 11.68zm-1677.43 101.39c0.82,3.96 4.56,6.96 8.54,6.96l7.96 0c4.97,0 7.2,-2.44 8.79,-5.47l99.24 -190.03 2.49 0 192.2 349.06c1.48,2.68 3.66,5.47 8.13,5.47l7.97 0c3.98,0 9.38,-2.87 9.36,-6.96l-2.1 -445.38c-0.03,-7.23 -1.29,-11.94 -8.25,-11.94l-45.76 0c-3.97,0 -9.51,3.37 -9.37,6.96l10.77 283.05 -1.99 0 -142.38 -284.48c-1.36,-2.74 -3.17,-5.48 -8.13,-5.48l-8.95 0c-4.98,0 -7.34,2.6 -8.79,5.48l-89.61 178.46 -1.99 0 -23.65 -176.97c-0.47,-3.55 -4.57,-6.96 -8.55,-6.96l-45.76 0c-6.96,0 -11.12,4.94 -9.66,11.95l59.5 286.28z"/>
 </g>
</svg>
